solid AstroBoardClip
facet normal 1.000 0.000 0.000
  outer loop
    vertex 3.0000 -18.0000 0.0000
    vertex 3.0000 -16.0000 0.0000
    vertex 3.0000 -16.0000 10.0000
  endloop
endfacet
facet normal 1.000 0.000 0.000
  outer loop
    vertex 3.0000 -18.0000 0.0000
    vertex 3.0000 -16.0000 10.0000
    vertex 3.0000 -18.0000 10.0000
  endloop
endfacet
facet normal 0.000 -1.000 0.000
  outer loop
    vertex 3.0000 -16.0000 0.0000
    vertex 5.0000 -16.0000 0.0000
    vertex 5.0000 -16.0000 10.0000
  endloop
endfacet
facet normal 0.000 -1.000 0.000
  outer loop
    vertex 3.0000 -16.0000 0.0000
    vertex 5.0000 -16.0000 10.0000
    vertex 3.0000 -16.0000 10.0000
  endloop
endfacet
facet normal 1.000 0.000 0.000
  outer loop
    vertex 5.0000 -16.0000 0.0000
    vertex 5.0000 -8.0000 0.0000
    vertex 5.0000 -8.0000 10.0000
  endloop
endfacet
facet normal 1.000 0.000 0.000
  outer loop
    vertex 5.0000 -16.0000 0.0000
    vertex 5.0000 -8.0000 10.0000
    vertex 5.0000 -16.0000 10.0000
  endloop
endfacet
facet normal 0.447 -0.894 0.000
  outer loop
    vertex 5.0000 -8.0000 0.0000
    vertex 7.0000 -7.0000 0.0000
    vertex 7.0000 -7.0000 10.0000
  endloop
endfacet
facet normal 0.447 -0.894 0.000
  outer loop
    vertex 5.0000 -8.0000 0.0000
    vertex 7.0000 -7.0000 10.0000
    vertex 5.0000 -8.0000 10.0000
  endloop
endfacet
facet normal 0.000 -1.000 0.000
  outer loop
    vertex 7.0000 -7.0000 0.0000
    vertex 17.7500 -7.0000 0.0000
    vertex 17.7500 -7.0000 10.0000
  endloop
endfacet
facet normal 0.000 -1.000 0.000
  outer loop
    vertex 7.0000 -7.0000 0.0000
    vertex 17.7500 -7.0000 10.0000
    vertex 7.0000 -7.0000 10.0000
  endloop
endfacet
facet normal 0.447 -0.894 0.000
  outer loop
    vertex 17.7500 -7.0000 0.0000
    vertex 18.2500 -6.7500 0.0000
    vertex 18.2500 -6.7500 10.0000
  endloop
endfacet
facet normal 0.447 -0.894 0.000
  outer loop
    vertex 17.7500 -7.0000 0.0000
    vertex 18.2500 -6.7500 10.0000
    vertex 17.7500 -7.0000 10.0000
  endloop
endfacet
facet normal 0.894 -0.447 0.000
  outer loop
    vertex 18.2500 -6.7500 0.0000
    vertex 18.5000 -6.2500 0.0000
    vertex 18.5000 -6.2500 10.0000
  endloop
endfacet
facet normal 0.894 -0.447 0.000
  outer loop
    vertex 18.2500 -6.7500 0.0000
    vertex 18.5000 -6.2500 10.0000
    vertex 18.2500 -6.7500 10.0000
  endloop
endfacet
facet normal 1.000 0.000 0.000
  outer loop
    vertex 18.5000 -6.2500 0.0000
    vertex 18.5000 -4.0000 0.0000
    vertex 18.5000 -4.0000 10.0000
  endloop
endfacet
facet normal 1.000 0.000 0.000
  outer loop
    vertex 18.5000 -6.2500 0.0000
    vertex 18.5000 -4.0000 10.0000
    vertex 18.5000 -6.2500 10.0000
  endloop
endfacet
facet normal 0.000 1.000 0.000
  outer loop
    vertex 18.5000 -4.0000 0.0000
    vertex 17.2500 -4.0000 0.0000
    vertex 17.2500 -4.0000 10.0000
  endloop
endfacet
facet normal 0.000 1.000 0.000
  outer loop
    vertex 18.5000 -4.0000 0.0000
    vertex 17.2500 -4.0000 10.0000
    vertex 18.5000 -4.0000 10.0000
  endloop
endfacet
facet normal -1.000 0.000 0.000
  outer loop
    vertex 17.2500 -4.0000 0.0000
    vertex 17.2500 -5.2500 0.0000
    vertex 17.2500 -5.2500 10.0000
  endloop
endfacet
facet normal -1.000 0.000 0.000
  outer loop
    vertex 17.2500 -4.0000 0.0000
    vertex 17.2500 -5.2500 10.0000
    vertex 17.2500 -4.0000 10.0000
  endloop
endfacet
facet normal 0.000 1.000 0.000
  outer loop
    vertex 17.2500 -5.2500 0.0000
    vertex 5.0000 -5.2500 0.0000
    vertex 5.0000 -5.2500 10.0000
  endloop
endfacet
facet normal 0.000 1.000 0.000
  outer loop
    vertex 17.2500 -5.2500 0.0000
    vertex 5.0000 -5.2500 10.0000
    vertex 17.2500 -5.2500 10.0000
  endloop
endfacet
facet normal 1.000 0.000 0.000
  outer loop
    vertex 5.0000 -5.2500 0.0000
    vertex 5.0000 5.0000 0.0000
    vertex 5.0000 5.0000 10.0000
  endloop
endfacet
facet normal 1.000 0.000 0.000
  outer loop
    vertex 5.0000 -5.2500 0.0000
    vertex 5.0000 5.0000 10.0000
    vertex 5.0000 -5.2500 10.0000
  endloop
endfacet
facet normal 0.000 -1.000 0.000
  outer loop
    vertex 5.0000 5.0000 0.0000
    vertex 17.2500 5.0000 0.0000
    vertex 17.2500 5.0000 10.0000
  endloop
endfacet
facet normal 0.000 -1.000 0.000
  outer loop
    vertex 5.0000 5.0000 0.0000
    vertex 17.2500 5.0000 10.0000
    vertex 5.0000 5.0000 10.0000
  endloop
endfacet
facet normal -1.000 0.000 0.000
  outer loop
    vertex 17.2500 5.0000 0.0000
    vertex 17.2500 3.7500 0.0000
    vertex 17.2500 3.7500 10.0000
  endloop
endfacet
facet normal -1.000 0.000 0.000
  outer loop
    vertex 17.2500 5.0000 0.0000
    vertex 17.2500 3.7500 10.0000
    vertex 17.2500 5.0000 10.0000
  endloop
endfacet
facet normal 0.000 -1.000 0.000
  outer loop
    vertex 17.2500 3.7500 0.0000
    vertex 18.5000 3.7500 0.0000
    vertex 18.5000 3.7500 10.0000
  endloop
endfacet
facet normal 0.000 -1.000 0.000
  outer loop
    vertex 17.2500 3.7500 0.0000
    vertex 18.5000 3.7500 10.0000
    vertex 17.2500 3.7500 10.0000
  endloop
endfacet
facet normal 1.000 0.000 0.000
  outer loop
    vertex 18.5000 3.7500 0.0000
    vertex 18.5000 6.0000 0.0000
    vertex 18.5000 6.0000 10.0000
  endloop
endfacet
facet normal 1.000 0.000 0.000
  outer loop
    vertex 18.5000 3.7500 0.0000
    vertex 18.5000 6.0000 10.0000
    vertex 18.5000 3.7500 10.0000
  endloop
endfacet
facet normal 0.894 0.447 0.000
  outer loop
    vertex 18.5000 6.0000 0.0000
    vertex 18.2500 6.5000 0.0000
    vertex 18.2500 6.5000 10.0000
  endloop
endfacet
facet normal 0.894 0.447 0.000
  outer loop
    vertex 18.5000 6.0000 0.0000
    vertex 18.2500 6.5000 10.0000
    vertex 18.5000 6.0000 10.0000
  endloop
endfacet
facet normal 0.447 0.894 0.000
  outer loop
    vertex 18.2500 6.5000 0.0000
    vertex 17.7500 6.7500 0.0000
    vertex 17.7500 6.7500 10.0000
  endloop
endfacet
facet normal 0.447 0.894 0.000
  outer loop
    vertex 18.2500 6.5000 0.0000
    vertex 17.7500 6.7500 10.0000
    vertex 18.2500 6.5000 10.0000
  endloop
endfacet
facet normal 0.000 1.000 0.000
  outer loop
    vertex 17.7500 6.7500 0.0000
    vertex 7.0000 6.7500 0.0000
    vertex 7.0000 6.7500 10.0000
  endloop
endfacet
facet normal 0.000 1.000 0.000
  outer loop
    vertex 17.7500 6.7500 0.0000
    vertex 7.0000 6.7500 10.0000
    vertex 17.7500 6.7500 10.0000
  endloop
endfacet
facet normal 0.447 0.894 0.000
  outer loop
    vertex 7.0000 6.7500 0.0000
    vertex 5.0000 7.7500 0.0000
    vertex 5.0000 7.7500 10.0000
  endloop
endfacet
facet normal 0.447 0.894 0.000
  outer loop
    vertex 7.0000 6.7500 0.0000
    vertex 5.0000 7.7500 10.0000
    vertex 7.0000 6.7500 10.0000
  endloop
endfacet
facet normal 1.000 0.000 0.000
  outer loop
    vertex 5.0000 7.7500 0.0000
    vertex 5.0000 16.0000 0.0000
    vertex 5.0000 16.0000 10.0000
  endloop
endfacet
facet normal 1.000 0.000 0.000
  outer loop
    vertex 5.0000 7.7500 0.0000
    vertex 5.0000 16.0000 10.0000
    vertex 5.0000 7.7500 10.0000
  endloop
endfacet
facet normal 0.000 1.000 0.000
  outer loop
    vertex 5.0000 16.0000 0.0000
    vertex 3.0000 16.0000 0.0000
    vertex 3.0000 16.0000 10.0000
  endloop
endfacet
facet normal 0.000 1.000 0.000
  outer loop
    vertex 5.0000 16.0000 0.0000
    vertex 3.0000 16.0000 10.0000
    vertex 5.0000 16.0000 10.0000
  endloop
endfacet
facet normal 1.000 0.000 0.000
  outer loop
    vertex 3.0000 16.0000 0.0000
    vertex 3.0000 17.7500 0.0000
    vertex 3.0000 17.7500 10.0000
  endloop
endfacet
facet normal 1.000 0.000 0.000
  outer loop
    vertex 3.0000 16.0000 0.0000
    vertex 3.0000 17.7500 10.0000
    vertex 3.0000 16.0000 10.0000
  endloop
endfacet
facet normal 0.707 0.707 0.000
  outer loop
    vertex 3.0000 17.7500 0.0000
    vertex 1.7500 19.0000 0.0000
    vertex 1.7500 19.0000 10.0000
  endloop
endfacet
facet normal 0.707 0.707 0.000
  outer loop
    vertex 3.0000 17.7500 0.0000
    vertex 1.7500 19.0000 10.0000
    vertex 3.0000 17.7500 10.0000
  endloop
endfacet
facet normal 0.000 1.000 0.000
  outer loop
    vertex 1.7500 19.0000 0.0000
    vertex -1.2500 19.0000 0.0000
    vertex -1.2500 19.0000 10.0000
  endloop
endfacet
facet normal 0.000 1.000 0.000
  outer loop
    vertex 1.7500 19.0000 0.0000
    vertex -1.2500 19.0000 10.0000
    vertex 1.7500 19.0000 10.0000
  endloop
endfacet
facet normal -0.447 0.894 0.000
  outer loop
    vertex -1.2500 19.0000 0.0000
    vertex -1.7500 18.7500 0.0000
    vertex -1.7500 18.7500 10.0000
  endloop
endfacet
facet normal -0.447 0.894 0.000
  outer loop
    vertex -1.2500 19.0000 0.0000
    vertex -1.7500 18.7500 10.0000
    vertex -1.2500 19.0000 10.0000
  endloop
endfacet
facet normal -0.894 0.447 0.000
  outer loop
    vertex -1.7500 18.7500 0.0000
    vertex -2.0000 18.2500 0.0000
    vertex -2.0000 18.2500 10.0000
  endloop
endfacet
facet normal -0.894 0.447 0.000
  outer loop
    vertex -1.7500 18.7500 0.0000
    vertex -2.0000 18.2500 10.0000
    vertex -1.7500 18.7500 10.0000
  endloop
endfacet
facet normal -1.000 0.000 0.000
  outer loop
    vertex -2.0000 18.2500 0.0000
    vertex -2.0000 16.0000 0.0000
    vertex -2.0000 16.0000 10.0000
  endloop
endfacet
facet normal -1.000 0.000 0.000
  outer loop
    vertex -2.0000 18.2500 0.0000
    vertex -2.0000 16.0000 10.0000
    vertex -2.0000 18.2500 10.0000
  endloop
endfacet
facet normal 0.000 -1.000 0.000
  outer loop
    vertex -2.0000 16.0000 0.0000
    vertex -0.7500 16.0000 0.0000
    vertex -0.7500 16.0000 10.0000
  endloop
endfacet
facet normal 0.000 -1.000 0.000
  outer loop
    vertex -2.0000 16.0000 0.0000
    vertex -0.7500 16.0000 10.0000
    vertex -2.0000 16.0000 10.0000
  endloop
endfacet
facet normal 1.000 0.000 0.000
  outer loop
    vertex -0.7500 16.0000 0.0000
    vertex -0.7500 17.2500 0.0000
    vertex -0.7500 17.2500 10.0000
  endloop
endfacet
facet normal 1.000 0.000 0.000
  outer loop
    vertex -0.7500 16.0000 0.0000
    vertex -0.7500 17.2500 10.0000
    vertex -0.7500 16.0000 10.0000
  endloop
endfacet
facet normal 0.000 -1.000 0.000
  outer loop
    vertex -0.7500 17.2500 0.0000
    vertex 1.0000 17.2500 0.0000
    vertex 1.0000 17.2500 10.0000
  endloop
endfacet
facet normal 0.000 -1.000 0.000
  outer loop
    vertex -0.7500 17.2500 0.0000
    vertex 1.0000 17.2500 10.0000
    vertex -0.7500 17.2500 10.0000
  endloop
endfacet
facet normal -1.000 0.000 0.000
  outer loop
    vertex 1.0000 17.2500 0.0000
    vertex 1.0000 14.0000 0.0000
    vertex 1.0000 14.0000 10.0000
  endloop
endfacet
facet normal -1.000 0.000 0.000
  outer loop
    vertex 1.0000 17.2500 0.0000
    vertex 1.0000 14.0000 10.0000
    vertex 1.0000 17.2500 10.0000
  endloop
endfacet
facet normal 0.000 -1.000 0.000
  outer loop
    vertex 1.0000 14.0000 0.0000
    vertex 3.0000 14.0000 0.0000
    vertex 3.0000 14.0000 10.0000
  endloop
endfacet
facet normal 0.000 -1.000 0.000
  outer loop
    vertex 1.0000 14.0000 0.0000
    vertex 3.0000 14.0000 10.0000
    vertex 1.0000 14.0000 10.0000
  endloop
endfacet
facet normal -1.000 0.000 0.000
  outer loop
    vertex 3.0000 14.0000 0.0000
    vertex 3.0000 -14.0000 0.0000
    vertex 3.0000 -14.0000 10.0000
  endloop
endfacet
facet normal -1.000 0.000 0.000
  outer loop
    vertex 3.0000 14.0000 0.0000
    vertex 3.0000 -14.0000 10.0000
    vertex 3.0000 14.0000 10.0000
  endloop
endfacet
facet normal 0.000 1.000 0.000
  outer loop
    vertex 3.0000 -14.0000 0.0000
    vertex 1.0000 -14.0000 0.0000
    vertex 1.0000 -14.0000 10.0000
  endloop
endfacet
facet normal 0.000 1.000 0.000
  outer loop
    vertex 3.0000 -14.0000 0.0000
    vertex 1.0000 -14.0000 10.0000
    vertex 3.0000 -14.0000 10.0000
  endloop
endfacet
facet normal -1.000 0.000 0.000
  outer loop
    vertex 1.0000 -14.0000 0.0000
    vertex 1.0000 -17.2500 0.0000
    vertex 1.0000 -17.2500 10.0000
  endloop
endfacet
facet normal -1.000 0.000 0.000
  outer loop
    vertex 1.0000 -14.0000 0.0000
    vertex 1.0000 -17.2500 10.0000
    vertex 1.0000 -14.0000 10.0000
  endloop
endfacet
facet normal 0.000 1.000 0.000
  outer loop
    vertex 1.0000 -17.2500 0.0000
    vertex -0.7500 -17.2500 0.0000
    vertex -0.7500 -17.2500 10.0000
  endloop
endfacet
facet normal 0.000 1.000 0.000
  outer loop
    vertex 1.0000 -17.2500 0.0000
    vertex -0.7500 -17.2500 10.0000
    vertex 1.0000 -17.2500 10.0000
  endloop
endfacet
facet normal 1.000 0.000 0.000
  outer loop
    vertex -0.7500 -17.2500 0.0000
    vertex -0.7500 -16.0000 0.0000
    vertex -0.7500 -16.0000 10.0000
  endloop
endfacet
facet normal 1.000 0.000 0.000
  outer loop
    vertex -0.7500 -17.2500 0.0000
    vertex -0.7500 -16.0000 10.0000
    vertex -0.7500 -17.2500 10.0000
  endloop
endfacet
facet normal 0.000 1.000 0.000
  outer loop
    vertex -0.7500 -16.0000 0.0000
    vertex -2.0000 -16.0000 0.0000
    vertex -2.0000 -16.0000 10.0000
  endloop
endfacet
facet normal 0.000 1.000 0.000
  outer loop
    vertex -0.7500 -16.0000 0.0000
    vertex -2.0000 -16.0000 10.0000
    vertex -0.7500 -16.0000 10.0000
  endloop
endfacet
facet normal -1.000 0.000 0.000
  outer loop
    vertex -2.0000 -16.0000 0.0000
    vertex -2.0000 -18.2500 0.0000
    vertex -2.0000 -18.2500 10.0000
  endloop
endfacet
facet normal -1.000 0.000 0.000
  outer loop
    vertex -2.0000 -16.0000 0.0000
    vertex -2.0000 -18.2500 10.0000
    vertex -2.0000 -16.0000 10.0000
  endloop
endfacet
facet normal -0.894 -0.447 0.000
  outer loop
    vertex -2.0000 -18.2500 0.0000
    vertex -1.7500 -18.7500 0.0000
    vertex -1.7500 -18.7500 10.0000
  endloop
endfacet
facet normal -0.894 -0.447 0.000
  outer loop
    vertex -2.0000 -18.2500 0.0000
    vertex -1.7500 -18.7500 10.0000
    vertex -2.0000 -18.2500 10.0000
  endloop
endfacet
facet normal -0.447 -0.894 0.000
  outer loop
    vertex -1.7500 -18.7500 0.0000
    vertex -1.2500 -19.0000 0.0000
    vertex -1.2500 -19.0000 10.0000
  endloop
endfacet
facet normal -0.447 -0.894 0.000
  outer loop
    vertex -1.7500 -18.7500 0.0000
    vertex -1.2500 -19.0000 10.0000
    vertex -1.7500 -18.7500 10.0000
  endloop
endfacet
facet normal 0.000 -1.000 0.000
  outer loop
    vertex -1.2500 -19.0000 0.0000
    vertex 2.0000 -19.0000 0.0000
    vertex 2.0000 -19.0000 10.0000
  endloop
endfacet
facet normal 0.000 -1.000 0.000
  outer loop
    vertex -1.2500 -19.0000 0.0000
    vertex 2.0000 -19.0000 10.0000
    vertex -1.2500 -19.0000 10.0000
  endloop
endfacet
facet normal 0.707 -0.707 0.000
  outer loop
    vertex 2.0000 -19.0000 0.0000
    vertex 3.0000 -18.0000 0.0000
    vertex 3.0000 -18.0000 10.0000
  endloop
endfacet
facet normal 0.707 -0.707 0.000
  outer loop
    vertex 2.0000 -19.0000 0.0000
    vertex 3.0000 -18.0000 10.0000
    vertex 2.0000 -19.0000 10.0000
  endloop
endfacet
facet normal 0.000 0.000 -1.000
  outer loop
    vertex 18.5000 -6.2500 0.0000
    vertex 17.2500 -4.0000 0.0000
    vertex 18.5000 -4.0000 0.0000
  endloop
endfacet
facet normal 0.000 0.000 1.000
  outer loop
    vertex 18.5000 -6.2500 10.0000
    vertex 18.5000 -4.0000 10.0000
    vertex 17.2500 -4.0000 10.0000
  endloop
endfacet
facet normal 0.000 0.000 -1.000
  outer loop
    vertex 17.2500 5.0000 0.0000
    vertex 18.5000 3.7500 0.0000
    vertex 17.2500 3.7500 0.0000
  endloop
endfacet
facet normal 0.000 0.000 1.000
  outer loop
    vertex 17.2500 5.0000 10.0000
    vertex 17.2500 3.7500 10.0000
    vertex 18.5000 3.7500 10.0000
  endloop
endfacet
facet normal 0.000 0.000 -1.000
  outer loop
    vertex 17.2500 5.0000 0.0000
    vertex 18.5000 6.0000 0.0000
    vertex 18.5000 3.7500 0.0000
  endloop
endfacet
facet normal 0.000 0.000 1.000
  outer loop
    vertex 17.2500 5.0000 10.0000
    vertex 18.5000 3.7500 10.0000
    vertex 18.5000 6.0000 10.0000
  endloop
endfacet
facet normal 0.000 0.000 -1.000
  outer loop
    vertex -2.0000 18.2500 0.0000
    vertex -0.7500 16.0000 0.0000
    vertex -2.0000 16.0000 0.0000
  endloop
endfacet
facet normal 0.000 0.000 1.000
  outer loop
    vertex -2.0000 18.2500 10.0000
    vertex -2.0000 16.0000 10.0000
    vertex -0.7500 16.0000 10.0000
  endloop
endfacet
facet normal 0.000 0.000 -1.000
  outer loop
    vertex 1.0000 17.2500 0.0000
    vertex 3.0000 14.0000 0.0000
    vertex 1.0000 14.0000 0.0000
  endloop
endfacet
facet normal 0.000 0.000 1.000
  outer loop
    vertex 1.0000 17.2500 10.0000
    vertex 1.0000 14.0000 10.0000
    vertex 3.0000 14.0000 10.0000
  endloop
endfacet
facet normal 0.000 0.000 -1.000
  outer loop
    vertex 3.0000 -14.0000 0.0000
    vertex 1.0000 -17.2500 0.0000
    vertex 1.0000 -14.0000 0.0000
  endloop
endfacet
facet normal 0.000 0.000 1.000
  outer loop
    vertex 3.0000 -14.0000 10.0000
    vertex 1.0000 -14.0000 10.0000
    vertex 1.0000 -17.2500 10.0000
  endloop
endfacet
facet normal 0.000 0.000 -1.000
  outer loop
    vertex -0.7500 -17.2500 0.0000
    vertex -2.0000 -16.0000 0.0000
    vertex -0.7500 -16.0000 0.0000
  endloop
endfacet
facet normal 0.000 0.000 1.000
  outer loop
    vertex -0.7500 -17.2500 10.0000
    vertex -0.7500 -16.0000 10.0000
    vertex -2.0000 -16.0000 10.0000
  endloop
endfacet
facet normal 0.000 0.000 -1.000
  outer loop
    vertex -0.7500 -17.2500 0.0000
    vertex -2.0000 -18.2500 0.0000
    vertex -2.0000 -16.0000 0.0000
  endloop
endfacet
facet normal 0.000 0.000 1.000
  outer loop
    vertex -0.7500 -17.2500 10.0000
    vertex -2.0000 -16.0000 10.0000
    vertex -2.0000 -18.2500 10.0000
  endloop
endfacet
facet normal 0.000 0.000 -1.000
  outer loop
    vertex 3.0000 16.0000 0.0000
    vertex 1.7500 19.0000 0.0000
    vertex 3.0000 17.7500 0.0000
  endloop
endfacet
facet normal 0.000 0.000 1.000
  outer loop
    vertex 3.0000 16.0000 10.0000
    vertex 3.0000 17.7500 10.0000
    vertex 1.7500 19.0000 10.0000
  endloop
endfacet
facet normal 0.000 0.000 -1.000
  outer loop
    vertex 3.0000 16.0000 0.0000
    vertex -1.2500 19.0000 0.0000
    vertex 1.7500 19.0000 0.0000
  endloop
endfacet
facet normal 0.000 0.000 1.000
  outer loop
    vertex 3.0000 16.0000 10.0000
    vertex 1.7500 19.0000 10.0000
    vertex -1.2500 19.0000 10.0000
  endloop
endfacet
facet normal 0.000 0.000 -1.000
  outer loop
    vertex -2.0000 18.2500 0.0000
    vertex -0.7500 17.2500 0.0000
    vertex -0.7500 16.0000 0.0000
  endloop
endfacet
facet normal 0.000 0.000 1.000
  outer loop
    vertex -2.0000 18.2500 10.0000
    vertex -0.7500 16.0000 10.0000
    vertex -0.7500 17.2500 10.0000
  endloop
endfacet
facet normal 0.000 0.000 -1.000
  outer loop
    vertex 18.5000 -6.2500 0.0000
    vertex 17.2500 -5.2500 0.0000
    vertex 17.2500 -4.0000 0.0000
  endloop
endfacet
facet normal 0.000 0.000 1.000
  outer loop
    vertex 18.5000 -6.2500 10.0000
    vertex 17.2500 -4.0000 10.0000
    vertex 17.2500 -5.2500 10.0000
  endloop
endfacet
facet normal 0.000 0.000 -1.000
  outer loop
    vertex 2.0000 -19.0000 0.0000
    vertex 3.0000 -16.0000 0.0000
    vertex 3.0000 -18.0000 0.0000
  endloop
endfacet
facet normal 0.000 0.000 1.000
  outer loop
    vertex 2.0000 -19.0000 10.0000
    vertex 3.0000 -18.0000 10.0000
    vertex 3.0000 -16.0000 10.0000
  endloop
endfacet
facet normal 0.000 0.000 -1.000
  outer loop
    vertex -1.2500 -19.0000 0.0000
    vertex 3.0000 -16.0000 0.0000
    vertex 2.0000 -19.0000 0.0000
  endloop
endfacet
facet normal 0.000 0.000 1.000
  outer loop
    vertex -1.2500 -19.0000 10.0000
    vertex 2.0000 -19.0000 10.0000
    vertex 3.0000 -16.0000 10.0000
  endloop
endfacet
facet normal 0.000 0.000 -1.000
  outer loop
    vertex -2.0000 -18.2500 0.0000
    vertex -1.2500 -19.0000 0.0000
    vertex -1.7500 -18.7500 0.0000
  endloop
endfacet
facet normal 0.000 0.000 1.000
  outer loop
    vertex -2.0000 -18.2500 10.0000
    vertex -1.7500 -18.7500 10.0000
    vertex -1.2500 -19.0000 10.0000
  endloop
endfacet
facet normal 0.000 0.000 -1.000
  outer loop
    vertex -0.7500 -17.2500 0.0000
    vertex -1.2500 -19.0000 0.0000
    vertex -2.0000 -18.2500 0.0000
  endloop
endfacet
facet normal 0.000 0.000 1.000
  outer loop
    vertex -0.7500 -17.2500 10.0000
    vertex -2.0000 -18.2500 10.0000
    vertex -1.2500 -19.0000 10.0000
  endloop
endfacet
facet normal 0.000 0.000 -1.000
  outer loop
    vertex 1.0000 -17.2500 0.0000
    vertex -1.2500 -19.0000 0.0000
    vertex -0.7500 -17.2500 0.0000
  endloop
endfacet
facet normal 0.000 0.000 1.000
  outer loop
    vertex 1.0000 -17.2500 10.0000
    vertex -0.7500 -17.2500 10.0000
    vertex -1.2500 -19.0000 10.0000
  endloop
endfacet
facet normal 0.000 0.000 -1.000
  outer loop
    vertex -2.0000 18.2500 0.0000
    vertex 1.0000 17.2500 0.0000
    vertex -0.7500 17.2500 0.0000
  endloop
endfacet
facet normal 0.000 0.000 1.000
  outer loop
    vertex -2.0000 18.2500 10.0000
    vertex -0.7500 17.2500 10.0000
    vertex 1.0000 17.2500 10.0000
  endloop
endfacet
facet normal 0.000 0.000 -1.000
  outer loop
    vertex -1.2500 19.0000 0.0000
    vertex -2.0000 18.2500 0.0000
    vertex -1.7500 18.7500 0.0000
  endloop
endfacet
facet normal 0.000 0.000 1.000
  outer loop
    vertex -1.2500 19.0000 10.0000
    vertex -1.7500 18.7500 10.0000
    vertex -2.0000 18.2500 10.0000
  endloop
endfacet
facet normal 0.000 0.000 -1.000
  outer loop
    vertex -1.2500 19.0000 0.0000
    vertex 1.0000 17.2500 0.0000
    vertex -2.0000 18.2500 0.0000
  endloop
endfacet
facet normal 0.000 0.000 1.000
  outer loop
    vertex -1.2500 19.0000 10.0000
    vertex -2.0000 18.2500 10.0000
    vertex 1.0000 17.2500 10.0000
  endloop
endfacet
facet normal 0.000 0.000 -1.000
  outer loop
    vertex 18.5000 6.0000 0.0000
    vertex 17.7500 6.7500 0.0000
    vertex 18.2500 6.5000 0.0000
  endloop
endfacet
facet normal 0.000 0.000 1.000
  outer loop
    vertex 18.5000 6.0000 10.0000
    vertex 18.2500 6.5000 10.0000
    vertex 17.7500 6.7500 10.0000
  endloop
endfacet
facet normal 0.000 0.000 -1.000
  outer loop
    vertex 17.2500 5.0000 0.0000
    vertex 17.7500 6.7500 0.0000
    vertex 18.5000 6.0000 0.0000
  endloop
endfacet
facet normal 0.000 0.000 1.000
  outer loop
    vertex 17.2500 5.0000 10.0000
    vertex 18.5000 6.0000 10.0000
    vertex 17.7500 6.7500 10.0000
  endloop
endfacet
facet normal 0.000 0.000 -1.000
  outer loop
    vertex 17.7500 -7.0000 0.0000
    vertex 18.5000 -6.2500 0.0000
    vertex 18.2500 -6.7500 0.0000
  endloop
endfacet
facet normal 0.000 0.000 1.000
  outer loop
    vertex 17.7500 -7.0000 10.0000
    vertex 18.2500 -6.7500 10.0000
    vertex 18.5000 -6.2500 10.0000
  endloop
endfacet
facet normal 0.000 0.000 -1.000
  outer loop
    vertex 17.7500 -7.0000 0.0000
    vertex 17.2500 -5.2500 0.0000
    vertex 18.5000 -6.2500 0.0000
  endloop
endfacet
facet normal 0.000 0.000 1.000
  outer loop
    vertex 17.7500 -7.0000 10.0000
    vertex 18.5000 -6.2500 10.0000
    vertex 17.2500 -5.2500 10.0000
  endloop
endfacet
facet normal 0.000 0.000 -1.000
  outer loop
    vertex 3.0000 -16.0000 0.0000
    vertex 5.0000 -8.0000 0.0000
    vertex 5.0000 -16.0000 0.0000
  endloop
endfacet
facet normal 0.000 0.000 1.000
  outer loop
    vertex 3.0000 -16.0000 10.0000
    vertex 5.0000 -16.0000 10.0000
    vertex 5.0000 -8.0000 10.0000
  endloop
endfacet
facet normal 0.000 0.000 -1.000
  outer loop
    vertex 5.0000 7.7500 0.0000
    vertex 3.0000 16.0000 0.0000
    vertex 5.0000 16.0000 0.0000
  endloop
endfacet
facet normal 0.000 0.000 1.000
  outer loop
    vertex 5.0000 7.7500 10.0000
    vertex 5.0000 16.0000 10.0000
    vertex 3.0000 16.0000 10.0000
  endloop
endfacet
facet normal 0.000 0.000 -1.000
  outer loop
    vertex 17.2500 5.0000 0.0000
    vertex 7.0000 6.7500 0.0000
    vertex 17.7500 6.7500 0.0000
  endloop
endfacet
facet normal 0.000 0.000 1.000
  outer loop
    vertex 17.2500 5.0000 10.0000
    vertex 17.7500 6.7500 10.0000
    vertex 7.0000 6.7500 10.0000
  endloop
endfacet
facet normal 0.000 0.000 -1.000
  outer loop
    vertex 5.0000 5.0000 0.0000
    vertex 7.0000 6.7500 0.0000
    vertex 17.2500 5.0000 0.0000
  endloop
endfacet
facet normal 0.000 0.000 1.000
  outer loop
    vertex 5.0000 5.0000 10.0000
    vertex 17.2500 5.0000 10.0000
    vertex 7.0000 6.7500 10.0000
  endloop
endfacet
facet normal 0.000 0.000 -1.000
  outer loop
    vertex 5.0000 5.0000 0.0000
    vertex 5.0000 7.7500 0.0000
    vertex 7.0000 6.7500 0.0000
  endloop
endfacet
facet normal 0.000 0.000 1.000
  outer loop
    vertex 5.0000 5.0000 10.0000
    vertex 7.0000 6.7500 10.0000
    vertex 5.0000 7.7500 10.0000
  endloop
endfacet
facet normal 0.000 0.000 -1.000
  outer loop
    vertex 7.0000 -7.0000 0.0000
    vertex 17.2500 -5.2500 0.0000
    vertex 17.7500 -7.0000 0.0000
  endloop
endfacet
facet normal 0.000 0.000 1.000
  outer loop
    vertex 7.0000 -7.0000 10.0000
    vertex 17.7500 -7.0000 10.0000
    vertex 17.2500 -5.2500 10.0000
  endloop
endfacet
facet normal 0.000 0.000 -1.000
  outer loop
    vertex 7.0000 -7.0000 0.0000
    vertex 5.0000 -5.2500 0.0000
    vertex 17.2500 -5.2500 0.0000
  endloop
endfacet
facet normal 0.000 0.000 1.000
  outer loop
    vertex 7.0000 -7.0000 10.0000
    vertex 17.2500 -5.2500 10.0000
    vertex 5.0000 -5.2500 10.0000
  endloop
endfacet
facet normal 0.000 0.000 -1.000
  outer loop
    vertex 5.0000 -8.0000 0.0000
    vertex 5.0000 -5.2500 0.0000
    vertex 7.0000 -7.0000 0.0000
  endloop
endfacet
facet normal 0.000 0.000 1.000
  outer loop
    vertex 5.0000 -8.0000 10.0000
    vertex 7.0000 -7.0000 10.0000
    vertex 5.0000 -5.2500 10.0000
  endloop
endfacet
facet normal 0.000 0.000 -1.000
  outer loop
    vertex 3.0000 -16.0000 0.0000
    vertex 5.0000 -5.2500 0.0000
    vertex 5.0000 -8.0000 0.0000
  endloop
endfacet
facet normal 0.000 0.000 1.000
  outer loop
    vertex 3.0000 -16.0000 10.0000
    vertex 5.0000 -8.0000 10.0000
    vertex 5.0000 -5.2500 10.0000
  endloop
endfacet
facet normal 0.000 0.000 -1.000
  outer loop
    vertex 3.0000 -16.0000 0.0000
    vertex 5.0000 5.0000 0.0000
    vertex 5.0000 -5.2500 0.0000
  endloop
endfacet
facet normal 0.000 0.000 1.000
  outer loop
    vertex 3.0000 -16.0000 10.0000
    vertex 5.0000 -5.2500 10.0000
    vertex 5.0000 5.0000 10.0000
  endloop
endfacet
facet normal 0.000 0.000 -1.000
  outer loop
    vertex 5.0000 5.0000 0.0000
    vertex 3.0000 16.0000 0.0000
    vertex 5.0000 7.7500 0.0000
  endloop
endfacet
facet normal 0.000 0.000 1.000
  outer loop
    vertex 5.0000 5.0000 10.0000
    vertex 5.0000 7.7500 10.0000
    vertex 3.0000 16.0000 10.0000
  endloop
endfacet
facet normal 0.000 0.000 -1.000
  outer loop
    vertex 1.0000 -17.2500 0.0000
    vertex 3.0000 -16.0000 0.0000
    vertex -1.2500 -19.0000 0.0000
  endloop
endfacet
facet normal 0.000 0.000 1.000
  outer loop
    vertex 1.0000 -17.2500 10.0000
    vertex -1.2500 -19.0000 10.0000
    vertex 3.0000 -16.0000 10.0000
  endloop
endfacet
facet normal 0.000 0.000 -1.000
  outer loop
    vertex 3.0000 -14.0000 0.0000
    vertex 3.0000 -16.0000 0.0000
    vertex 1.0000 -17.2500 0.0000
  endloop
endfacet
facet normal 0.000 0.000 1.000
  outer loop
    vertex 3.0000 -14.0000 10.0000
    vertex 1.0000 -17.2500 10.0000
    vertex 3.0000 -16.0000 10.0000
  endloop
endfacet
facet normal 0.000 0.000 -1.000
  outer loop
    vertex 3.0000 16.0000 0.0000
    vertex 1.0000 17.2500 0.0000
    vertex -1.2500 19.0000 0.0000
  endloop
endfacet
facet normal 0.000 0.000 1.000
  outer loop
    vertex 3.0000 16.0000 10.0000
    vertex -1.2500 19.0000 10.0000
    vertex 1.0000 17.2500 10.0000
  endloop
endfacet
facet normal 0.000 0.000 -1.000
  outer loop
    vertex 3.0000 16.0000 0.0000
    vertex 3.0000 14.0000 0.0000
    vertex 1.0000 17.2500 0.0000
  endloop
endfacet
facet normal 0.000 0.000 1.000
  outer loop
    vertex 3.0000 16.0000 10.0000
    vertex 1.0000 17.2500 10.0000
    vertex 3.0000 14.0000 10.0000
  endloop
endfacet
facet normal 0.000 0.000 -1.000
  outer loop
    vertex 5.0000 5.0000 0.0000
    vertex 3.0000 14.0000 0.0000
    vertex 3.0000 16.0000 0.0000
  endloop
endfacet
facet normal 0.000 0.000 1.000
  outer loop
    vertex 5.0000 5.0000 10.0000
    vertex 3.0000 16.0000 10.0000
    vertex 3.0000 14.0000 10.0000
  endloop
endfacet
facet normal 0.000 0.000 -1.000
  outer loop
    vertex 5.0000 5.0000 0.0000
    vertex 3.0000 -14.0000 0.0000
    vertex 3.0000 14.0000 0.0000
  endloop
endfacet
facet normal 0.000 0.000 1.000
  outer loop
    vertex 5.0000 5.0000 10.0000
    vertex 3.0000 14.0000 10.0000
    vertex 3.0000 -14.0000 10.0000
  endloop
endfacet
facet normal 0.000 0.000 -1.000
  outer loop
    vertex 3.0000 -16.0000 0.0000
    vertex 3.0000 -14.0000 0.0000
    vertex 5.0000 5.0000 0.0000
  endloop
endfacet
facet normal 0.000 0.000 1.000
  outer loop
    vertex 3.0000 -16.0000 10.0000
    vertex 5.0000 5.0000 10.0000
    vertex 3.0000 -14.0000 10.0000
  endloop
endfacet
endsolid AstroBoardClip
