solid RA_IndicatorClip
facet normal -0.830 -0.557 -0.000
  outer loop
    vertex -5.6272 -29.8118 8.0753
    vertex -5.6272 -29.8118 4.3315
    vertex -4.9421 -30.8332 4.3315
  endloop
endfacet
facet normal -0.830 -0.557 -0.000
  outer loop
    vertex -5.6272 -29.8118 8.0753
    vertex -4.9421 -30.8332 4.3315
    vertex -4.9421 -30.8332 8.0753
  endloop
endfacet
facet normal -0.727 -0.686 -0.000
  outer loop
    vertex -4.9421 -30.8332 8.0753
    vertex -4.9421 -30.8332 4.3315
    vertex -3.3333 -32.5381 4.3315
  endloop
endfacet
facet normal -0.727 -0.686 -0.000
  outer loop
    vertex -4.9421 -30.8332 8.0753
    vertex -3.3333 -32.5381 4.3315
    vertex -3.3333 -32.5381 8.0753
  endloop
endfacet
facet normal 1.000 0.000 0.000
  outer loop
    vertex -3.3333 -32.5381 8.0753
    vertex -3.3333 -32.5381 4.3315
    vertex -3.3333 -31.2262 4.3315
  endloop
endfacet
facet normal 1.000 0.000 0.000
  outer loop
    vertex -3.3333 -32.5381 8.0753
    vertex -3.3333 -31.2262 4.3315
    vertex -3.3333 -31.2262 8.0753
  endloop
endfacet
facet normal 1.000 0.000 0.000
  outer loop
    vertex -3.3333 -31.2262 8.0753
    vertex -3.3333 -31.2262 4.3315
    vertex -3.3333 -30.1803 4.3315
  endloop
endfacet
facet normal 1.000 0.000 0.000
  outer loop
    vertex -3.3333 -31.2262 8.0753
    vertex -3.3333 -30.1803 4.3315
    vertex -3.3333 -30.1803 8.0753
  endloop
endfacet
facet normal 0.000 0.000 -1.000
  outer loop
    vertex 1.0261 -18.2532 4.3463
    vertex 1.6094 -14.1278 4.3463
    vertex 11.6124 -14.1278 4.3463
  endloop
endfacet
facet normal 0.000 0.000 -1.000
  outer loop
    vertex 1.0261 -18.2532 4.3463
    vertex 11.6124 -14.1278 4.3463
    vertex 10.9398 -15.9299 4.3463
  endloop
endfacet
facet normal 0.000 0.000 -1.000
  outer loop
    vertex 1.6094 -14.1278 4.3463
    vertex 1.6094 -8.2759 4.3484
    vertex 11.6124 -8.2759 4.3484
  endloop
endfacet
facet normal 0.000 0.000 -1.000
  outer loop
    vertex 1.6094 -14.1278 4.3463
    vertex 11.6124 -8.2759 4.3484
    vertex 11.6124 -14.1278 4.3463
  endloop
endfacet
facet normal 0.000 -1.000 0.000
  outer loop
    vertex 1.6094 -8.2759 4.3484
    vertex 1.6094 -8.2759 -1.0889
    vertex 11.6124 -8.2759 -1.0889
  endloop
endfacet
facet normal 0.000 -1.000 0.000
  outer loop
    vertex 1.6094 -8.2759 4.3484
    vertex 11.6124 -8.2759 -1.0889
    vertex 11.6124 -8.2759 4.3484
  endloop
endfacet
facet normal 0.000 -0.922 -0.387
  outer loop
    vertex 1.6094 -8.2759 -1.0889
    vertex 1.6269 -8.0193 -1.7008
    vertex 11.6124 -8.0193 -1.7008
  endloop
endfacet
facet normal 0.000 -0.922 -0.387
  outer loop
    vertex 1.6094 -8.2759 -1.0889
    vertex 11.6124 -8.0193 -1.7008
    vertex 11.6124 -8.2759 -1.0889
  endloop
endfacet
facet normal 0.000 0.879 -0.477
  outer loop
    vertex 1.6094 -5.6865 -1.9833
    vertex 1.6094 -4.6865 -0.1405
    vertex 11.6124 -4.6865 -0.1405
  endloop
endfacet
facet normal 0.000 0.879 -0.477
  outer loop
    vertex 1.6094 -5.6865 -1.9833
    vertex 11.6124 -4.6865 -0.1405
    vertex 11.6124 -5.6865 -1.9833
  endloop
endfacet
facet normal -0.000 0.000 1.000
  outer loop
    vertex 1.6094 -4.6865 -0.1405
    vertex 1.6094 -5.6865 -0.1405
    vertex 11.6124 -5.6865 -0.1405
  endloop
endfacet
facet normal -0.000 0.000 1.000
  outer loop
    vertex 1.6094 -4.6865 -0.1405
    vertex 11.6124 -5.6865 -0.1405
    vertex 11.6124 -4.6865 -0.1405
  endloop
endfacet
facet normal 0.000 1.000 -0.000
  outer loop
    vertex 1.6094 -5.6865 -0.1405
    vertex 1.6094 -5.6845 9.9654
    vertex 11.6124 -5.6845 9.9654
  endloop
endfacet
facet normal 0.000 1.000 -0.000
  outer loop
    vertex 1.6094 -5.6865 -0.1405
    vertex 11.6124 -5.6845 9.9654
    vertex 11.6124 -5.6865 -0.1405
  endloop
endfacet
facet normal 0.000 0.000 -1.000
  outer loop
    vertex 1.6094 -5.6845 9.9654
    vertex 1.6094 4.9745 9.9654
    vertex 11.6124 4.9745 9.9654
  endloop
endfacet
facet normal 0.000 0.000 -1.000
  outer loop
    vertex 1.6094 -5.6845 9.9654
    vertex 11.6124 4.9745 9.9654
    vertex 11.6124 -5.6845 9.9654
  endloop
endfacet
facet normal -0.000 -1.000 0.000
  outer loop
    vertex 1.6094 4.9745 9.9654
    vertex 1.6094 4.9726 -0.1405
    vertex 11.6124 4.9726 -0.1405
  endloop
endfacet
facet normal -0.000 -1.000 0.000
  outer loop
    vertex 1.6094 4.9745 9.9654
    vertex 11.6124 4.9726 -0.1405
    vertex 11.6124 4.9745 9.9654
  endloop
endfacet
facet normal -0.000 0.000 1.000
  outer loop
    vertex 1.6094 4.9726 -0.1405
    vertex 1.6094 3.9726 -0.1405
    vertex 11.6124 3.9726 -0.1405
  endloop
endfacet
facet normal -0.000 0.000 1.000
  outer loop
    vertex 1.6094 4.9726 -0.1405
    vertex 11.6124 3.9726 -0.1405
    vertex 11.6124 4.9726 -0.1405
  endloop
endfacet
facet normal 0.000 -0.879 -0.477
  outer loop
    vertex 1.6094 3.9726 -0.1405
    vertex 1.6094 4.9726 -1.9833
    vertex 11.6124 4.9726 -1.9833
  endloop
endfacet
facet normal 0.000 -0.879 -0.477
  outer loop
    vertex 1.6094 3.9726 -0.1405
    vertex 11.6124 4.9726 -1.9833
    vertex 11.6124 3.9726 -0.1405
  endloop
endfacet
facet normal 0.000 0.000 -1.000
  outer loop
    vertex 1.6094 4.9726 -1.9833
    vertex 1.6094 5.4913 -1.9833
    vertex 11.6124 5.4913 -1.9833
  endloop
endfacet
facet normal 0.000 0.000 -1.000
  outer loop
    vertex 1.6094 4.9726 -1.9833
    vertex 11.6124 5.4913 -1.9833
    vertex 11.6124 4.9726 -1.9833
  endloop
endfacet
facet normal 0.000 0.565 -0.825
  outer loop
    vertex 1.6094 5.4913 -1.9833
    vertex 1.6094 5.9913 -1.6405
    vertex 11.6124 5.9913 -1.6405
  endloop
endfacet
facet normal 0.000 0.565 -0.825
  outer loop
    vertex 1.6094 5.4913 -1.9833
    vertex 11.6124 5.9913 -1.6405
    vertex 11.6124 5.4913 -1.9833
  endloop
endfacet
facet normal 0.000 0.894 -0.447
  outer loop
    vertex 1.6094 5.9913 -1.6405
    vertex 1.6094 6.2413 -1.1405
    vertex 11.6124 6.2413 -1.1405
  endloop
endfacet
facet normal 0.000 0.894 -0.447
  outer loop
    vertex 1.6094 5.9913 -1.6405
    vertex 11.6124 6.2413 -1.1405
    vertex 11.6124 5.9913 -1.6405
  endloop
endfacet
facet normal 0.000 1.000 -0.000
  outer loop
    vertex 1.6094 6.2413 -1.1405
    vertex 1.6094 6.2432 7.9654
    vertex 11.6124 6.2432 7.9654
  endloop
endfacet
facet normal 0.000 1.000 -0.000
  outer loop
    vertex 1.6094 6.2413 -1.1405
    vertex 11.6124 6.2432 7.9654
    vertex 11.6124 6.2413 -1.1405
  endloop
endfacet
facet normal 0.000 0.895 -0.446
  outer loop
    vertex 1.6094 6.2432 7.9654
    vertex 1.6094 7.2398 9.9654
    vertex 11.6124 7.2398 9.9654
  endloop
endfacet
facet normal 0.000 0.895 -0.446
  outer loop
    vertex 1.6094 6.2432 7.9654
    vertex 11.6124 7.2398 9.9654
    vertex 11.6124 6.2432 7.9654
  endloop
endfacet
facet normal -0.000 0.381 0.924
  outer loop
    vertex 1.6094 7.1126 11.7820
    vertex 1.6094 6.6680 11.9654
    vertex 11.6124 6.6680 11.9654
  endloop
endfacet
facet normal -0.000 0.381 0.924
  outer loop
    vertex 1.6094 7.1126 11.7820
    vertex 11.6124 6.6680 11.9654
    vertex 11.6124 7.1126 11.7820
  endloop
endfacet
facet normal -0.000 -0.897 0.442
  outer loop
    vertex 1.6094 -7.4898 11.6834
    vertex 1.6094 -7.7838 11.0865
    vertex 11.6124 -7.7838 11.0865
  endloop
endfacet
facet normal -0.000 -0.897 0.442
  outer loop
    vertex 1.6094 -7.4898 11.6834
    vertex 11.6124 -7.7838 11.0865
    vertex 11.6124 -7.4898 11.6834
  endloop
endfacet
facet normal 0.000 -0.987 0.161
  outer loop
    vertex 1.6094 -7.7838 11.0865
    vertex 1.6094 -8.2759 8.0753
    vertex 11.6124 -8.2759 8.0753
  endloop
endfacet
facet normal 0.000 -0.987 0.161
  outer loop
    vertex 1.6094 -7.7838 11.0865
    vertex 11.6124 -8.2759 8.0753
    vertex 11.6124 -7.7838 11.0865
  endloop
endfacet
facet normal 0.000 0.000 1.000
  outer loop
    vertex 1.6094 -8.2759 8.0753
    vertex 1.6094 -14.0255 8.0753
    vertex 11.6124 -14.0255 8.0753
  endloop
endfacet
facet normal 0.000 0.000 1.000
  outer loop
    vertex 1.6094 -8.2759 8.0753
    vertex 11.6124 -14.0255 8.0753
    vertex 11.6124 -8.2759 8.0753
  endloop
endfacet
facet normal -1.000 -0.000 -0.000
  outer loop
    vertex -0.1837 4.9726 -0.1405
    vertex -0.1837 4.9726 -1.9833
    vertex -0.1837 3.9726 -0.1405
  endloop
endfacet
facet normal 1.000 0.000 0.000
  outer loop
    vertex 11.6124 4.9726 -0.1405
    vertex 11.6124 3.9726 -0.1405
    vertex 11.6124 4.9726 -1.9833
  endloop
endfacet
facet normal -1.000 0.000 0.000
  outer loop
    vertex -0.1837 4.9726 -0.1405
    vertex -0.1837 5.4913 -1.9833
    vertex -0.1837 4.9726 -1.9833
  endloop
endfacet
facet normal 1.000 0.000 0.000
  outer loop
    vertex 11.6124 4.9726 -0.1405
    vertex 11.6124 4.9726 -1.9833
    vertex 11.6124 5.4913 -1.9833
  endloop
endfacet
facet normal -1.000 0.000 0.000
  outer loop
    vertex -0.1837 5.4913 -1.9833
    vertex -0.1837 6.2413 -1.1405
    vertex -0.1837 5.9913 -1.6405
  endloop
endfacet
facet normal 1.000 0.000 0.000
  outer loop
    vertex 11.6124 5.4913 -1.9833
    vertex 11.6124 5.9913 -1.6405
    vertex 11.6124 6.2413 -1.1405
  endloop
endfacet
facet normal -1.000 0.000 0.000
  outer loop
    vertex -0.1837 4.9726 -0.1405
    vertex -0.1837 6.2413 -1.1405
    vertex -0.1837 5.4913 -1.9833
  endloop
endfacet
facet normal 1.000 0.000 0.000
  outer loop
    vertex 11.6124 4.9726 -0.1405
    vertex 11.6124 5.4913 -1.9833
    vertex 11.6124 6.2413 -1.1405
  endloop
endfacet
facet normal -1.000 0.000 0.000
  outer loop
    vertex -0.1837 4.9726 -0.1405
    vertex -0.1837 6.2432 7.9654
    vertex -0.1837 6.2413 -1.1405
  endloop
endfacet
facet normal 1.000 -0.000 0.000
  outer loop
    vertex 11.6124 4.9726 -0.1405
    vertex 11.6124 6.2413 -1.1405
    vertex 11.6124 6.2432 7.9654
  endloop
endfacet
facet normal -1.000 0.000 -0.000
  outer loop
    vertex -0.1837 4.9745 9.9654
    vertex -0.1837 6.2432 7.9654
    vertex -0.1837 4.9726 -0.1405
  endloop
endfacet
facet normal 1.000 0.000 0.000
  outer loop
    vertex 11.6124 4.9745 9.9654
    vertex 11.6124 4.9726 -0.1405
    vertex 11.6124 6.2432 7.9654
  endloop
endfacet
facet normal -1.000 0.000 0.000
  outer loop
    vertex -0.1837 4.9745 9.9654
    vertex -0.1837 7.2398 9.9654
    vertex -0.1837 6.2432 7.9654
  endloop
endfacet
facet normal 1.000 -0.000 0.000
  outer loop
    vertex 11.6124 4.9745 9.9654
    vertex 11.6124 6.2432 7.9654
    vertex 11.6124 7.2398 9.9654
  endloop
endfacet
facet normal -1.000 0.000 0.000
  outer loop
    vertex -0.1837 7.2398 11.3964
    vertex -0.1837 6.6680 11.9654
    vertex -0.1837 7.1126 11.7820
  endloop
endfacet
facet normal 1.000 0.000 0.000
  outer loop
    vertex 11.6124 7.2398 11.3964
    vertex 11.6124 7.1126 11.7820
    vertex 11.6124 6.6680 11.9654
  endloop
endfacet
facet normal -0.000 0.000 1.000
  outer loop
    vertex 1.6094 -5.6865 -0.1405
    vertex 1.6094 -4.6865 -0.1405
    vertex -0.1837 -4.6865 -0.1405
  endloop
endfacet
facet normal -0.000 0.000 1.000
  outer loop
    vertex 1.6094 -5.6865 -0.1405
    vertex -0.1837 -4.6865 -0.1405
    vertex -0.1837 -5.6865 -0.1405
  endloop
endfacet
facet normal 0.000 0.879 -0.477
  outer loop
    vertex 1.6094 -4.6865 -0.1405
    vertex 1.6094 -5.6865 -1.9833
    vertex -0.1837 -5.6865 -1.9833
  endloop
endfacet
facet normal 0.000 0.879 -0.477
  outer loop
    vertex 1.6094 -4.6865 -0.1405
    vertex -0.1837 -5.6865 -1.9833
    vertex -0.1837 -4.6865 -0.1405
  endloop
endfacet
facet normal 0.000 -0.879 -0.477
  outer loop
    vertex 1.6094 4.9726 -1.9833
    vertex 1.6094 3.9726 -0.1405
    vertex -0.1837 3.9726 -0.1405
  endloop
endfacet
facet normal 0.000 -0.879 -0.477
  outer loop
    vertex 1.6094 4.9726 -1.9833
    vertex -0.1837 3.9726 -0.1405
    vertex -0.1837 4.9726 -1.9833
  endloop
endfacet
facet normal -0.000 0.000 1.000
  outer loop
    vertex 1.6094 3.9726 -0.1405
    vertex 1.6094 4.9726 -0.1405
    vertex -0.1837 4.9726 -0.1405
  endloop
endfacet
facet normal -0.000 0.000 1.000
  outer loop
    vertex 1.6094 3.9726 -0.1405
    vertex -0.1837 4.9726 -0.1405
    vertex -0.1837 3.9726 -0.1405
  endloop
endfacet
facet normal 0.000 -0.000 -1.000
  outer loop
    vertex 1.6094 5.4913 -1.9833
    vertex 1.6094 4.9726 -1.9833
    vertex -0.1837 4.9726 -1.9833
  endloop
endfacet
facet normal 0.000 -0.000 -1.000
  outer loop
    vertex 1.6094 5.4913 -1.9833
    vertex -0.1837 4.9726 -1.9833
    vertex -0.1837 5.4913 -1.9833
  endloop
endfacet
facet normal 0.000 0.894 -0.447
  outer loop
    vertex 1.6094 6.2413 -1.1405
    vertex 1.6094 5.9913 -1.6405
    vertex -0.1837 5.9913 -1.6405
  endloop
endfacet
facet normal 0.000 0.894 -0.447
  outer loop
    vertex 1.6094 6.2413 -1.1405
    vertex -0.1837 5.9913 -1.6405
    vertex -0.1837 6.2413 -1.1405
  endloop
endfacet
facet normal 0.000 0.565 -0.825
  outer loop
    vertex 1.6094 5.9913 -1.6405
    vertex 1.6094 5.4913 -1.9833
    vertex -0.1837 5.4913 -1.9833
  endloop
endfacet
facet normal 0.000 0.565 -0.825
  outer loop
    vertex 1.6094 5.9913 -1.6405
    vertex -0.1837 5.4913 -1.9833
    vertex -0.1837 5.9913 -1.6405
  endloop
endfacet
facet normal 0.000 -1.000 0.000
  outer loop
    vertex 1.6094 -8.2759 -1.0889
    vertex 1.6094 -8.2759 4.3484
    vertex -0.1837 -8.2759 4.3484
  endloop
endfacet
facet normal 0.000 -1.000 0.000
  outer loop
    vertex 1.6094 -8.2759 -1.0889
    vertex -0.1837 -8.2759 4.3484
    vertex -0.1837 -8.2759 -1.0889
  endloop
endfacet
facet normal 0.000 0.000 -1.000
  outer loop
    vertex 1.6094 -8.2759 4.3484
    vertex 1.6094 -14.1278 4.3463
    vertex -0.1837 -14.1278 4.3463
  endloop
endfacet
facet normal 0.000 0.000 -1.000
  outer loop
    vertex 1.6094 -8.2759 4.3484
    vertex -0.1837 -14.1278 4.3463
    vertex -0.1837 -8.2759 4.3484
  endloop
endfacet
facet normal 0.000 0.000 -1.000
  outer loop
    vertex -0.5532 -18.1362 4.3463
    vertex -0.1984 -16.3871 4.3463
    vertex 1.0261 -18.2532 4.3463
  endloop
endfacet
facet normal 0.000 0.000 -1.000
  outer loop
    vertex -0.1984 -16.3871 4.3463
    vertex 1.6094 -14.1278 4.3463
    vertex 1.0261 -18.2532 4.3463
  endloop
endfacet
facet normal 0.000 0.000 -1.000
  outer loop
    vertex -0.1984 -16.3871 4.3463
    vertex -0.1837 -14.1278 4.3463
    vertex 1.6094 -14.1278 4.3463
  endloop
endfacet
facet normal 0.000 1.000 -0.000
  outer loop
    vertex 1.6094 6.2432 7.9654
    vertex 1.6094 6.2413 -1.1405
    vertex -0.1837 6.2413 -1.1405
  endloop
endfacet
facet normal 0.000 1.000 -0.000
  outer loop
    vertex 1.6094 6.2432 7.9654
    vertex -0.1837 6.2413 -1.1405
    vertex -0.1837 6.2432 7.9654
  endloop
endfacet
facet normal 0.000 -1.000 0.000
  outer loop
    vertex 1.6094 4.9726 -0.1405
    vertex 1.6094 4.9745 9.9654
    vertex -0.1837 4.9745 9.9654
  endloop
endfacet
facet normal 0.000 -1.000 0.000
  outer loop
    vertex 1.6094 4.9726 -0.1405
    vertex -0.1837 4.9745 9.9654
    vertex -0.1837 4.9726 -0.1405
  endloop
endfacet
facet normal 0.000 0.895 -0.446
  outer loop
    vertex 1.6094 7.2398 9.9654
    vertex 1.6094 6.2432 7.9654
    vertex -0.1837 6.2432 7.9654
  endloop
endfacet
facet normal 0.000 0.895 -0.446
  outer loop
    vertex 1.6094 7.2398 9.9654
    vertex -0.1837 6.2432 7.9654
    vertex -0.1837 7.2398 9.9654
  endloop
endfacet
facet normal 0.000 1.000 -0.000
  outer loop
    vertex 1.6094 -5.6845 9.9654
    vertex 1.6094 -5.6865 -0.1405
    vertex -0.1837 -5.6865 -0.1405
  endloop
endfacet
facet normal 0.000 1.000 -0.000
  outer loop
    vertex 1.6094 -5.6845 9.9654
    vertex -0.1837 -5.6865 -0.1405
    vertex -0.1837 -5.6845 9.9654
  endloop
endfacet
facet normal -0.000 0.381 0.924
  outer loop
    vertex 1.6094 6.6680 11.9654
    vertex 1.6094 7.1126 11.7820
    vertex -0.1837 7.1126 11.7820
  endloop
endfacet
facet normal -0.000 0.381 0.924
  outer loop
    vertex 1.6094 6.6680 11.9654
    vertex -0.1837 7.1126 11.7820
    vertex -0.1837 6.6680 11.9654
  endloop
endfacet
facet normal -0.000 -0.000 -1.000
  outer loop
    vertex 1.6094 4.9745 9.9654
    vertex 1.6094 -5.6845 9.9654
    vertex -0.1837 -5.6845 9.9654
  endloop
endfacet
facet normal -0.000 -0.000 -1.000
  outer loop
    vertex 1.6094 4.9745 9.9654
    vertex -0.1837 -5.6845 9.9654
    vertex -0.1837 4.9745 9.9654
  endloop
endfacet
facet normal 0.000 1.000 0.000
  outer loop
    vertex 1.6094 7.2398 9.9654
    vertex -0.1837 7.2398 9.9654
    vertex -0.1837 7.2398 11.3964
  endloop
endfacet
facet normal 0.000 1.000 0.000
  outer loop
    vertex 1.6094 7.2398 9.9654
    vertex -0.1837 7.2398 11.3964
    vertex 1.6094 7.2398 11.3964
  endloop
endfacet
facet normal 0.000 0.950 0.313
  outer loop
    vertex 1.6094 7.2398 11.3964
    vertex -0.1837 7.2398 11.3964
    vertex -0.1837 7.1126 11.7820
  endloop
endfacet
facet normal 0.000 0.950 0.313
  outer loop
    vertex 1.6094 7.2398 11.3964
    vertex -0.1837 7.1126 11.7820
    vertex 1.6094 7.1126 11.7820
  endloop
endfacet
facet normal 0.000 1.000 -0.000
  outer loop
    vertex 1.6094 7.2398 9.9654
    vertex 1.6094 7.2398 11.3964
    vertex 11.6124 7.2398 11.3964
  endloop
endfacet
facet normal 0.000 1.000 -0.000
  outer loop
    vertex 1.6094 7.2398 9.9654
    vertex 11.6124 7.2398 11.3964
    vertex 11.6124 7.2398 9.9654
  endloop
endfacet
facet normal -0.000 0.950 0.313
  outer loop
    vertex 1.6094 7.2398 11.3964
    vertex 1.6094 7.1126 11.7820
    vertex 11.6124 7.1126 11.7820
  endloop
endfacet
facet normal -0.000 0.950 0.313
  outer loop
    vertex 1.6094 7.2398 11.3964
    vertex 11.6124 7.1126 11.7820
    vertex 11.6124 7.2398 11.3964
  endloop
endfacet
facet normal 1.000 0.000 0.000
  outer loop
    vertex 11.6124 4.9745 9.9654
    vertex 11.6124 7.2398 9.9654
    vertex 11.6124 7.2398 11.3964
  endloop
endfacet
facet normal 1.000 0.000 0.000
  outer loop
    vertex 11.6124 6.6680 11.9654
    vertex 11.6124 -6.8309 11.9654
    vertex 11.6124 4.9745 9.9654
  endloop
endfacet
facet normal 1.000 0.000 0.000
  outer loop
    vertex 11.6124 -6.8309 11.9654
    vertex 11.6124 -5.6845 9.9654
    vertex 11.6124 4.9745 9.9654
  endloop
endfacet
facet normal 1.000 0.000 0.000
  outer loop
    vertex 11.6124 -6.8309 11.9654
    vertex 11.6124 -7.4898 11.6834
    vertex 11.6124 -5.6845 9.9654
  endloop
endfacet
facet normal 1.000 0.000 0.000
  outer loop
    vertex 11.6124 4.9745 9.9654
    vertex 11.6124 7.2398 11.3964
    vertex 11.6124 6.6680 11.9654
  endloop
endfacet
facet normal -1.000 0.000 0.000
  outer loop
    vertex -0.1837 4.9745 9.9654
    vertex -0.1837 7.2398 11.3964
    vertex -0.1837 7.2398 9.9654
  endloop
endfacet
facet normal -1.000 0.000 0.000
  outer loop
    vertex -0.1837 -7.4898 11.6834
    vertex -0.1837 -6.8309 11.9654
    vertex -0.1837 -5.6845 9.9654
  endloop
endfacet
facet normal -1.000 0.000 0.000
  outer loop
    vertex -0.1837 -6.8309 11.9654
    vertex -0.1837 4.9745 9.9654
    vertex -0.1837 -5.6845 9.9654
  endloop
endfacet
facet normal -1.000 0.000 0.000
  outer loop
    vertex -0.1837 -6.8309 11.9654
    vertex -0.1837 6.6680 11.9654
    vertex -0.1837 4.9745 9.9654
  endloop
endfacet
facet normal -1.000 0.000 0.000
  outer loop
    vertex -0.1837 4.9745 9.9654
    vertex -0.1837 6.6680 11.9654
    vertex -0.1837 7.2398 11.3964
  endloop
endfacet
facet normal 0.000 -0.000 1.000
  outer loop
    vertex 1.6094 -14.0255 8.0753
    vertex 1.6094 -8.2759 8.0753
    vertex -0.1837 -8.2759 8.0753
  endloop
endfacet
facet normal 0.000 -0.000 1.000
  outer loop
    vertex 1.6094 -14.0255 8.0753
    vertex -0.1837 -8.2759 8.0753
    vertex -0.1837 -14.0255 8.0753
  endloop
endfacet
facet normal 0.000 -0.987 0.161
  outer loop
    vertex 1.6094 -8.2759 8.0753
    vertex 1.6094 -7.7838 11.0865
    vertex -0.1837 -7.7838 11.0865
  endloop
endfacet
facet normal 0.000 -0.987 0.161
  outer loop
    vertex 1.6094 -8.2759 8.0753
    vertex -0.1837 -7.7838 11.0865
    vertex -0.1837 -8.2759 8.0753
  endloop
endfacet
facet normal 0.000 -0.897 0.442
  outer loop
    vertex 1.6094 -7.7838 11.0865
    vertex 1.6094 -7.4898 11.6834
    vertex -0.1837 -7.4898 11.6834
  endloop
endfacet
facet normal 0.000 -0.897 0.442
  outer loop
    vertex 1.6094 -7.7838 11.0865
    vertex -0.1837 -7.4898 11.6834
    vertex -0.1837 -7.7838 11.0865
  endloop
endfacet
facet normal -0.000 0.000 1.000
  outer loop
    vertex 1.6094 6.6680 11.9654
    vertex 1.6094 -6.8309 11.9654
    vertex 11.6124 -6.8309 11.9654
  endloop
endfacet
facet normal -0.000 0.000 1.000
  outer loop
    vertex 1.6094 6.6680 11.9654
    vertex 11.6124 -6.8309 11.9654
    vertex 11.6124 6.6680 11.9654
  endloop
endfacet
facet normal -0.000 -0.394 0.919
  outer loop
    vertex 1.6094 -6.8309 11.9654
    vertex 1.6094 -7.4898 11.6834
    vertex 11.6124 -7.4898 11.6834
  endloop
endfacet
facet normal -0.000 -0.394 0.919
  outer loop
    vertex 1.6094 -6.8309 11.9654
    vertex 11.6124 -7.4898 11.6834
    vertex 11.6124 -6.8309 11.9654
  endloop
endfacet
facet normal 0.000 0.000 1.000
  outer loop
    vertex 1.6094 6.6680 11.9654
    vertex -0.1837 6.6680 11.9654
    vertex -0.1837 -6.8309 11.9654
  endloop
endfacet
facet normal 0.000 0.000 1.000
  outer loop
    vertex 1.6094 6.6680 11.9654
    vertex -0.1837 -6.8309 11.9654
    vertex 1.6094 -6.8309 11.9654
  endloop
endfacet
facet normal 0.000 -0.394 0.919
  outer loop
    vertex 1.6094 -6.8309 11.9654
    vertex -0.1837 -6.8309 11.9654
    vertex -0.1837 -7.4898 11.6834
  endloop
endfacet
facet normal 0.000 -0.394 0.919
  outer loop
    vertex 1.6094 -6.8309 11.9654
    vertex -0.1837 -7.4898 11.6834
    vertex 1.6094 -7.4898 11.6834
  endloop
endfacet
facet normal 0.000 0.000 1.000
  outer loop
    vertex 1.0261 -18.2532 8.0753
    vertex 10.9398 -15.9299 8.0753
    vertex 11.6124 -14.0255 8.0753
  endloop
endfacet
facet normal 0.000 0.000 1.000
  outer loop
    vertex 1.0261 -18.2532 8.0753
    vertex 11.6124 -14.0255 8.0753
    vertex 1.6094 -14.0255 8.0753
  endloop
endfacet
facet normal -0.000 0.000 1.000
  outer loop
    vertex -0.1837 -14.0255 8.0753
    vertex -0.1984 -16.3359 8.0753
    vertex 1.6094 -14.0255 8.0753
  endloop
endfacet
facet normal -0.000 0.000 1.000
  outer loop
    vertex -0.1984 -16.3359 8.0753
    vertex 1.0261 -18.2532 8.0753
    vertex 1.6094 -14.0255 8.0753
  endloop
endfacet
facet normal 0.000 0.000 1.000
  outer loop
    vertex -0.1984 -16.3359 8.0753
    vertex -0.5532 -18.1362 8.0753
    vertex 1.0261 -18.2532 8.0753
  endloop
endfacet
facet normal 0.000 0.000 -1.000
  outer loop
    vertex 1.0261 -18.2532 4.3463
    vertex 10.9398 -15.9299 4.3463
    vertex 9.7781 -17.6559 4.3463
  endloop
endfacet
facet normal 0.000 0.000 -1.000
  outer loop
    vertex 1.0261 -18.2532 4.3463
    vertex 9.7781 -17.6559 4.3463
    vertex -0.3938 -21.6357 4.3463
  endloop
endfacet
facet normal 0.837 -0.548 0.000
  outer loop
    vertex 10.9398 -15.9299 4.3463
    vertex 10.9398 -15.9299 8.0753
    vertex 9.7781 -17.7039 8.0753
  endloop
endfacet
facet normal 0.837 -0.548 0.000
  outer loop
    vertex 10.9398 -15.9299 4.3463
    vertex 9.7781 -17.7039 8.0753
    vertex 9.7781 -17.6559 4.3463
  endloop
endfacet
facet normal 0.000 0.000 1.000
  outer loop
    vertex 10.9398 -15.9299 8.0753
    vertex 1.0261 -18.2532 8.0753
    vertex -0.4091 -21.6813 8.0753
  endloop
endfacet
facet normal 0.000 0.000 1.000
  outer loop
    vertex 10.9398 -15.9299 8.0753
    vertex -0.4091 -21.6813 8.0753
    vertex 9.7781 -17.7039 8.0753
  endloop
endfacet
facet normal -0.000 -0.000 1.000
  outer loop
    vertex -0.5532 -18.1362 8.0753
    vertex -1.2776 -19.7856 8.0748
    vertex 1.0261 -18.2532 8.0753
  endloop
endfacet
facet normal -0.000 0.000 1.000
  outer loop
    vertex -1.2776 -19.7856 8.0748
    vertex -0.4091 -21.6813 8.0753
    vertex 1.0261 -18.2532 8.0753
  endloop
endfacet
facet normal 0.000 0.000 1.000
  outer loop
    vertex -1.2776 -19.7856 8.0748
    vertex -2.4004 -21.4350 8.0753
    vertex -0.4091 -21.6813 8.0753
  endloop
endfacet
facet normal -0.915 0.403 -0.000
  outer loop
    vertex -0.5532 -18.1362 8.0753
    vertex -0.5532 -18.1362 4.3463
    vertex -1.2699 -19.7628 4.3458
  endloop
endfacet
facet normal -0.915 0.403 -0.000
  outer loop
    vertex -0.5532 -18.1362 8.0753
    vertex -1.2699 -19.7628 4.3458
    vertex -1.2776 -19.7856 8.0748
  endloop
endfacet
facet normal -0.825 0.565 0.002
  outer loop
    vertex -1.2776 -19.7856 8.0748
    vertex -1.2699 -19.7628 4.3458
    vertex -2.3851 -21.3894 4.3463
  endloop
endfacet
facet normal -0.825 0.565 0.002
  outer loop
    vertex -1.2776 -19.7856 8.0748
    vertex -2.3851 -21.3894 4.3463
    vertex -2.4004 -21.4350 8.0753
  endloop
endfacet
facet normal -0.000 -0.000 -1.000
  outer loop
    vertex -2.3851 -21.3894 4.3463
    vertex -1.2699 -19.7628 4.3458
    vertex -0.3938 -21.6357 4.3463
  endloop
endfacet
facet normal 0.000 -0.000 -1.000
  outer loop
    vertex -1.2699 -19.7628 4.3458
    vertex 1.0261 -18.2532 4.3463
    vertex -0.3938 -21.6357 4.3463
  endloop
endfacet
facet normal 0.000 0.000 -1.000
  outer loop
    vertex -1.2699 -19.7628 4.3458
    vertex -0.5532 -18.1362 4.3463
    vertex 1.0261 -18.2532 4.3463
  endloop
endfacet
facet normal 0.703 -0.711 -0.009
  outer loop
    vertex 9.7781 -17.6559 4.3463
    vertex 9.7781 -17.7039 8.0753
    vertex 4.7286 -22.6989 8.0753
  endloop
endfacet
facet normal 0.703 -0.711 -0.009
  outer loop
    vertex 9.7781 -17.6559 4.3463
    vertex 4.7286 -22.6989 8.0753
    vertex 4.7286 -22.6989 4.3463
  endloop
endfacet
facet normal -0.000 -0.000 1.000
  outer loop
    vertex -2.4004 -21.4350 8.0753
    vertex -3.9219 -22.7902 8.0751
    vertex -0.4091 -21.6813 8.0753
  endloop
endfacet
facet normal -0.669 0.743 0.006
  outer loop
    vertex -2.4004 -21.4350 8.0753
    vertex -2.3851 -21.3894 4.3463
    vertex -3.9142 -22.7674 4.3461
  endloop
endfacet
facet normal -0.669 0.743 0.006
  outer loop
    vertex -2.4004 -21.4350 8.0753
    vertex -3.9142 -22.7674 4.3461
    vertex -3.9219 -22.7902 8.0751
  endloop
endfacet
facet normal -0.522 0.853 0.004
  outer loop
    vertex -3.9219 -22.7902 8.0751
    vertex -3.9142 -22.7674 4.3461
    vertex -5.2659 -23.5936 4.3463
  endloop
endfacet
facet normal -0.522 0.853 0.004
  outer loop
    vertex -3.9219 -22.7902 8.0751
    vertex -5.2659 -23.5936 4.3463
    vertex -5.2659 -23.5936 8.0753
  endloop
endfacet
facet normal 0.000 0.000 -1.000
  outer loop
    vertex -3.9142 -22.7674 4.3461
    vertex -2.3851 -21.3894 4.3463
    vertex -0.3938 -21.6357 4.3463
  endloop
endfacet
facet normal 0.679 -0.734 0.000
  outer loop
    vertex 4.7286 -22.6989 4.3463
    vertex 4.7286 -22.6989 8.0753
    vertex 0.7524 -26.3759 8.0753
  endloop
endfacet
facet normal 0.679 -0.734 0.000
  outer loop
    vertex 4.7286 -22.6989 4.3463
    vertex 0.7524 -26.3759 8.0753
    vertex 0.7524 -26.3759 4.3463
  endloop
endfacet
facet normal -0.742 0.671 0.000
  outer loop
    vertex -5.2659 -23.5936 8.0753
    vertex -5.2659 -23.5936 4.3463
    vertex -5.7408 -24.1190 4.3463
  endloop
endfacet
facet normal -0.742 0.671 0.000
  outer loop
    vertex -5.2659 -23.5936 8.0753
    vertex -5.7408 -24.1190 4.3463
    vertex -5.7408 -24.1190 8.0753
  endloop
endfacet
facet normal -0.902 0.432 0.000
  outer loop
    vertex -5.7408 -24.1190 8.0753
    vertex -5.7408 -24.1190 4.3463
    vertex -6.0105 -24.6822 4.3463
  endloop
endfacet
facet normal -0.902 0.432 0.000
  outer loop
    vertex -5.7408 -24.1190 8.0753
    vertex -6.0105 -24.6822 4.3463
    vertex -6.0105 -24.6822 8.0753
  endloop
endfacet
facet normal 0.000 0.000 -1.000
  outer loop
    vertex -6.0105 -24.6822 4.3463
    vertex 0.7524 -26.3759 4.3463
    vertex -1.0616 -28.0033 4.3463
  endloop
endfacet
facet normal 0.000 0.000 -1.000
  outer loop
    vertex -6.0105 -24.6822 4.3463
    vertex -1.0616 -28.0033 4.3463
    vertex -6.0105 -28.1534 4.3463
  endloop
endfacet
facet normal 0.668 -0.744 0.000
  outer loop
    vertex 0.7524 -26.3759 4.3463
    vertex 0.7524 -26.3759 8.0753
    vertex -1.0616 -28.0033 8.0753
  endloop
endfacet
facet normal 0.668 -0.744 0.000
  outer loop
    vertex 0.7524 -26.3759 4.3463
    vertex -1.0616 -28.0033 8.0753
    vertex -1.0616 -28.0033 4.3463
  endloop
endfacet
facet normal 0.000 0.000 1.000
  outer loop
    vertex 0.7524 -26.3759 8.0753
    vertex -6.0105 -24.6822 8.0753
    vertex -6.0105 -28.1534 8.0753
  endloop
endfacet
facet normal 0.000 0.000 1.000
  outer loop
    vertex 0.7524 -26.3759 8.0753
    vertex -6.0105 -28.1534 8.0753
    vertex -1.0616 -28.0033 8.0753
  endloop
endfacet
facet normal 1.000 0.000 -0.000
  outer loop
    vertex -6.0105 -24.6822 4.3463
    vertex -6.0105 -24.6822 8.0753
    vertex -6.0105 -28.1534 8.0753
  endloop
endfacet
facet normal 1.000 0.000 -0.000
  outer loop
    vertex -6.0105 -24.6822 4.3463
    vertex -6.0105 -28.1534 8.0753
    vertex -6.0105 -28.1534 4.3463
  endloop
endfacet
facet normal 0.943 -0.333 0.009
  outer loop
    vertex 11.6124 -14.1278 4.3463
    vertex 11.6124 -14.0255 8.0753
    vertex 10.9398 -15.9299 8.0753
  endloop
endfacet
facet normal 0.943 -0.333 0.009
  outer loop
    vertex 11.6124 -14.1278 4.3463
    vertex 10.9398 -15.9299 8.0753
    vertex 10.9398 -15.9299 4.3463
  endloop
endfacet
facet normal -1.000 0.007 -0.000
  outer loop
    vertex -0.1837 -14.1278 4.3463
    vertex -0.1984 -16.3871 4.3463
    vertex -0.1984 -16.3359 8.0753
  endloop
endfacet
facet normal -1.000 0.007 -0.000
  outer loop
    vertex -0.1837 -14.1278 4.3463
    vertex -0.1984 -16.3359 8.0753
    vertex -0.1837 -14.0255 8.0753
  endloop
endfacet
facet normal -0.980 0.199 -0.000
  outer loop
    vertex -0.1984 -16.3871 4.3463
    vertex -0.5532 -18.1362 4.3463
    vertex -0.5532 -18.1362 8.0753
  endloop
endfacet
facet normal -0.980 0.199 -0.000
  outer loop
    vertex -0.1984 -16.3871 4.3463
    vertex -0.5532 -18.1362 8.0753
    vertex -0.1984 -16.3359 8.0753
  endloop
endfacet
facet normal -0.974 -0.225 -0.000
  outer loop
    vertex -6.0105 -28.1534 8.0753
    vertex -6.0105 -28.1534 4.3463
    vertex -5.6272 -29.8118 4.3315
  endloop
endfacet
facet normal -0.974 -0.225 -0.000
  outer loop
    vertex -6.0105 -28.1534 8.0753
    vertex -5.6272 -29.8118 4.3315
    vertex -5.6272 -29.8118 8.0753
  endloop
endfacet
facet normal 0.020 0.014 -1.000
  outer loop
    vertex -4.9421 -30.8332 4.3315
    vertex -5.6272 -29.8118 4.3315
    vertex -6.0105 -28.1534 4.3463
  endloop
endfacet
facet normal 0.681 -0.732 0.000
  outer loop
    vertex -1.0616 -28.0033 4.3463
    vertex -1.0616 -28.0033 8.0753
    vertex -2.4307 -29.2767 8.0753
  endloop
endfacet
facet normal 0.681 -0.732 0.000
  outer loop
    vertex -1.0616 -28.0033 4.3463
    vertex -2.4307 -29.2767 8.0753
    vertex -2.4307 -29.2767 4.3389
  endloop
endfacet
facet normal 0.708 -0.707 0.000
  outer loop
    vertex -2.4307 -29.2767 4.3389
    vertex -2.4307 -29.2767 8.0753
    vertex -3.3333 -30.1803 8.0753
  endloop
endfacet
facet normal 0.708 -0.707 0.000
  outer loop
    vertex -2.4307 -29.2767 4.3389
    vertex -3.3333 -30.1803 8.0753
    vertex -3.3333 -30.1803 4.3315
  endloop
endfacet
facet normal -0.000 -0.000 1.000
  outer loop
    vertex -5.6272 -29.8118 8.0753
    vertex -4.9421 -30.8332 8.0753
    vertex -6.0105 -28.1534 8.0753
  endloop
endfacet
facet normal 0.000 -0.000 1.000
  outer loop
    vertex -3.3333 -32.5381 8.0753
    vertex -3.3333 -31.2262 8.0753
    vertex -4.9421 -30.8332 8.0753
  endloop
endfacet
facet normal 0.000 0.000 1.000
  outer loop
    vertex -6.0105 -28.1534 8.0753
    vertex -4.9421 -30.8332 8.0753
    vertex -3.3333 -31.2262 8.0753
  endloop
endfacet
facet normal 0.000 0.000 1.000
  outer loop
    vertex -6.0105 -28.1534 8.0753
    vertex -3.3333 -31.2262 8.0753
    vertex -3.3333 -30.1803 8.0753
  endloop
endfacet
facet normal 0.000 0.000 1.000
  outer loop
    vertex -6.0105 -28.1534 8.0753
    vertex -3.3333 -30.1803 8.0753
    vertex -2.4307 -29.2767 8.0753
  endloop
endfacet
facet normal -0.000 0.000 1.000
  outer loop
    vertex -6.0105 -28.1534 8.0753
    vertex -2.4307 -29.2767 8.0753
    vertex -1.0616 -28.0033 8.0753
  endloop
endfacet
facet normal -1.000 0.000 -0.000
  outer loop
    vertex -6.0105 -24.6822 8.0753
    vertex -6.0105 -24.6822 4.3463
    vertex -6.0105 -28.1534 4.3463
  endloop
endfacet
facet normal -1.000 0.000 -0.000
  outer loop
    vertex -6.0105 -24.6822 8.0753
    vertex -6.0105 -28.1534 4.3463
    vertex -6.0105 -28.1534 8.0753
  endloop
endfacet
facet normal -0.000 0.006 -1.000
  outer loop
    vertex -6.0105 -28.1534 4.3463
    vertex -1.0616 -28.0033 4.3463
    vertex -2.4307 -29.2767 4.3389
  endloop
endfacet
facet normal 0.000 0.008 -1.000
  outer loop
    vertex -6.0105 -28.1534 4.3463
    vertex -2.4307 -29.2767 4.3389
    vertex -3.3333 -30.1803 4.3315
  endloop
endfacet
facet normal -0.002 0.005 -1.000
  outer loop
    vertex -6.0105 -28.1534 4.3463
    vertex -3.3333 -30.1803 4.3315
    vertex -4.9421 -30.8332 4.3315
  endloop
endfacet
facet normal 0.000 0.000 -1.000
  outer loop
    vertex -3.3333 -32.5381 4.3315
    vertex -4.9421 -30.8332 4.3315
    vertex -3.3333 -31.2262 4.3315
  endloop
endfacet
facet normal 0.000 -0.000 -1.000
  outer loop
    vertex -3.3333 -30.1803 4.3315
    vertex -3.3333 -31.2262 4.3315
    vertex -4.9421 -30.8332 4.3315
  endloop
endfacet
facet normal 0.000 0.000 -1.000
  outer loop
    vertex 1.6233 -7.4192 -1.9833
    vertex -0.1837 -7.4192 -1.9833
    vertex -0.1837 -5.6865 -1.9833
  endloop
endfacet
facet normal 0.000 0.000 -1.000
  outer loop
    vertex 1.6233 -7.4192 -1.9833
    vertex -0.1837 -5.6865 -1.9833
    vertex 1.6094 -5.6865 -1.9833
  endloop
endfacet
facet normal 0.000 -0.426 -0.905
  outer loop
    vertex 1.6233 -7.4192 -1.9833
    vertex 1.6269 -8.0193 -1.7008
    vertex -0.1837 -8.0193 -1.7008
  endloop
endfacet
facet normal 0.000 -0.426 -0.905
  outer loop
    vertex 1.6233 -7.4192 -1.9833
    vertex -0.1837 -8.0193 -1.7008
    vertex -0.1837 -7.4192 -1.9833
  endloop
endfacet
facet normal 0.000 -0.922 -0.387
  outer loop
    vertex -0.1837 -8.0193 -1.7008
    vertex 1.6269 -8.0193 -1.7008
    vertex 1.6094 -8.2759 -1.0889
  endloop
endfacet
facet normal 0.000 -0.922 -0.387
  outer loop
    vertex -0.1837 -8.0193 -1.7008
    vertex 1.6094 -8.2759 -1.0889
    vertex -0.1837 -8.2759 -1.0889
  endloop
endfacet
facet normal 0.000 -0.426 -0.905
  outer loop
    vertex 1.6269 -8.0193 -1.7008
    vertex 1.6233 -7.4192 -1.9833
    vertex 11.6124 -7.4192 -1.9833
  endloop
endfacet
facet normal 0.000 -0.426 -0.905
  outer loop
    vertex 1.6269 -8.0193 -1.7008
    vertex 11.6124 -7.4192 -1.9833
    vertex 11.6124 -8.0193 -1.7008
  endloop
endfacet
facet normal 0.000 0.000 -1.000
  outer loop
    vertex 11.6124 -7.4192 -1.9833
    vertex 1.6233 -7.4192 -1.9833
    vertex 1.6094 -5.6865 -1.9833
  endloop
endfacet
facet normal 0.000 0.000 -1.000
  outer loop
    vertex 11.6124 -7.4192 -1.9833
    vertex 1.6094 -5.6865 -1.9833
    vertex 11.6124 -5.6865 -1.9833
  endloop
endfacet
facet normal -1.000 0.000 0.000
  outer loop
    vertex -0.1837 -14.0255 8.0753
    vertex -0.1837 -8.2759 8.0753
    vertex -0.1837 -8.2759 4.3484
  endloop
endfacet
facet normal -1.000 0.000 0.000
  outer loop
    vertex -0.1837 -14.0255 8.0753
    vertex -0.1837 -8.2759 4.3484
    vertex -0.1837 -14.1278 4.3463
  endloop
endfacet
facet normal -1.000 0.000 0.000
  outer loop
    vertex -0.1837 -5.6865 -0.1405
    vertex -0.1837 -8.2759 4.3484
    vertex -0.1837 -8.2759 8.0753
  endloop
endfacet
facet normal -1.000 0.000 0.000
  outer loop
    vertex -0.1837 -5.6865 -0.1405
    vertex -0.1837 -8.2759 8.0753
    vertex -0.1837 -5.6845 9.9654
  endloop
endfacet
facet normal -1.000 0.000 0.000
  outer loop
    vertex -0.1837 -5.6845 9.9654
    vertex -0.1837 -7.7838 11.0865
    vertex -0.1837 -7.4898 11.6834
  endloop
endfacet
facet normal -1.000 -0.000 0.000
  outer loop
    vertex -0.1837 -5.6845 9.9654
    vertex -0.1837 -8.2759 8.0753
    vertex -0.1837 -7.7838 11.0865
  endloop
endfacet
facet normal -1.000 -0.000 0.000
  outer loop
    vertex -0.1837 -5.6865 -0.1405
    vertex -0.1837 -8.2759 -1.0889
    vertex -0.1837 -8.2759 4.3484
  endloop
endfacet
facet normal -1.000 0.000 0.000
  outer loop
    vertex -0.1837 -5.6865 -0.1405
    vertex -0.1837 -4.6865 -0.1405
    vertex -0.1837 -5.6865 -1.9833
  endloop
endfacet
facet normal -1.000 0.000 0.000
  outer loop
    vertex -0.1837 -7.4192 -1.9833
    vertex -0.1837 -5.6865 -0.1405
    vertex -0.1837 -5.6865 -1.9833
  endloop
endfacet
facet normal -1.000 0.000 0.000
  outer loop
    vertex -0.1837 -7.4192 -1.9833
    vertex -0.1837 -8.0193 -1.7008
    vertex -0.1837 -5.6865 -0.1405
  endloop
endfacet
facet normal -1.000 0.000 0.000
  outer loop
    vertex -0.1837 -5.6865 -0.1405
    vertex -0.1837 -8.0193 -1.7008
    vertex -0.1837 -8.2759 -1.0889
  endloop
endfacet
facet normal 1.000 0.000 -0.000
  outer loop
    vertex 11.6124 -5.6865 -0.1405
    vertex 11.6124 -5.6845 9.9654
    vertex 11.6124 -8.2759 8.0753
  endloop
endfacet
facet normal 1.000 0.000 -0.000
  outer loop
    vertex 11.6124 -5.6865 -0.1405
    vertex 11.6124 -8.2759 8.0753
    vertex 11.6124 -8.2759 4.3484
  endloop
endfacet
facet normal 1.000 0.000 0.000
  outer loop
    vertex 11.6124 -5.6845 9.9654
    vertex 11.6124 -7.4898 11.6834
    vertex 11.6124 -7.7838 11.0865
  endloop
endfacet
facet normal 1.000 0.000 0.000
  outer loop
    vertex 11.6124 -5.6845 9.9654
    vertex 11.6124 -7.7838 11.0865
    vertex 11.6124 -8.2759 8.0753
  endloop
endfacet
facet normal 1.000 0.000 0.000
  outer loop
    vertex 11.6124 -5.6865 -0.1405
    vertex 11.6124 -8.2759 4.3484
    vertex 11.6124 -8.2759 -1.0889
  endloop
endfacet
facet normal 1.000 -0.000 0.000
  outer loop
    vertex 11.6124 -5.6865 -0.1405
    vertex 11.6124 -5.6865 -1.9833
    vertex 11.6124 -4.6865 -0.1405
  endloop
endfacet
facet normal 1.000 0.000 0.000
  outer loop
    vertex 11.6124 -7.4192 -1.9833
    vertex 11.6124 -5.6865 -1.9833
    vertex 11.6124 -5.6865 -0.1405
  endloop
endfacet
facet normal 1.000 0.000 -0.000
  outer loop
    vertex 11.6124 -7.4192 -1.9833
    vertex 11.6124 -5.6865 -0.1405
    vertex 11.6124 -8.0193 -1.7008
  endloop
endfacet
facet normal 1.000 0.000 0.000
  outer loop
    vertex 11.6124 -5.6865 -0.1405
    vertex 11.6124 -8.2759 -1.0889
    vertex 11.6124 -8.0193 -1.7008
  endloop
endfacet
facet normal 1.000 0.000 0.000
  outer loop
    vertex 11.6124 -14.0255 8.0753
    vertex 11.6124 -14.1278 4.3463
    vertex 11.6124 -8.2759 4.3484
  endloop
endfacet
facet normal 1.000 0.000 0.000
  outer loop
    vertex 11.6124 -14.0255 8.0753
    vertex 11.6124 -8.2759 4.3484
    vertex 11.6124 -8.2759 8.0753
  endloop
endfacet
facet normal 0.000 0.000 -1.000
  outer loop
    vertex -0.3938 -21.6357 4.3463
    vertex 9.7781 -17.6559 4.3463
    vertex 4.7286 -22.6989 4.3463
  endloop
endfacet
facet normal 0.000 0.000 -1.000
  outer loop
    vertex -0.3938 -21.6357 4.3463
    vertex 4.7286 -22.6989 4.3463
    vertex 0.7524 -26.3759 4.3463
  endloop
endfacet
facet normal 0.000 0.000 -1.000
  outer loop
    vertex -0.3938 -21.6357 4.3463
    vertex 0.7524 -26.3759 4.3463
    vertex -3.9142 -22.7674 4.3461
  endloop
endfacet
facet normal -0.000 -0.000 -1.000
  outer loop
    vertex -5.2659 -23.5936 4.3463
    vertex -3.9142 -22.7674 4.3461
    vertex 0.7524 -26.3759 4.3463
  endloop
endfacet
facet normal 0.000 -0.000 -1.000
  outer loop
    vertex -5.7408 -24.1190 4.3463
    vertex 0.7524 -26.3759 4.3463
    vertex -6.0105 -24.6822 4.3463
  endloop
endfacet
facet normal 0.000 -0.000 -1.000
  outer loop
    vertex -5.2659 -23.5936 4.3463
    vertex 0.7524 -26.3759 4.3463
    vertex -5.7408 -24.1190 4.3463
  endloop
endfacet
facet normal -0.000 0.000 1.000
  outer loop
    vertex -0.4091 -21.6813 8.0753
    vertex 4.7286 -22.6989 8.0753
    vertex 9.7781 -17.7039 8.0753
  endloop
endfacet
facet normal -0.000 -0.000 1.000
  outer loop
    vertex -0.4091 -21.6813 8.0753
    vertex -3.9219 -22.7902 8.0751
    vertex 0.7524 -26.3759 8.0753
  endloop
endfacet
facet normal -0.000 -0.000 1.000
  outer loop
    vertex -0.4091 -21.6813 8.0753
    vertex 0.7524 -26.3759 8.0753
    vertex 4.7286 -22.6989 8.0753
  endloop
endfacet
facet normal 0.000 0.000 1.000
  outer loop
    vertex -5.2659 -23.5936 8.0753
    vertex 0.7524 -26.3759 8.0753
    vertex -3.9219 -22.7902 8.0751
  endloop
endfacet
facet normal 0.000 0.000 1.000
  outer loop
    vertex -5.2659 -23.5936 8.0753
    vertex -5.7408 -24.1190 8.0753
    vertex 0.7524 -26.3759 8.0753
  endloop
endfacet
facet normal 0.000 0.000 1.000
  outer loop
    vertex -5.7408 -24.1190 8.0753
    vertex -6.0105 -24.6822 8.0753
    vertex 0.7524 -26.3759 8.0753
  endloop
endfacet
endsolid RA_IndicatorClip
